<svg width="16" height="16" viewBox="0 0 476 476" fill="none" xmlns="http://www.w3.org/2000/svg">
<g clip-path="url(#clip0_219_13)">
<path fill-rule="evenodd" clip-rule="evenodd" d="M399.81 333.933L319.195 448.14C315.825 452.913 309.672 454.832 304.196 452.817L44.5896 357.298C44.4291 357.239 44.2751 357.178 44.128 357.116L244.334 292.317L399.81 333.933ZM393.462 95.1968L459.482 213.451C461.638 217.312 461.66 222.012 459.541 225.9L410.076 316.659L254.161 274.925L259.765 169.754L393.462 95.1968ZM37.4256 338.974L95.9279 130.811L240.328 171.148L234.79 275.095L37.4256 338.974ZM103.787 112.924L159.652 38.0003C162.706 33.9042 167.887 31.9923 172.864 33.1246L380.28 80.3209C380.325 80.3311 380.37 80.3414 380.414 80.352L249.177 153.538L103.787 112.924Z" fill="#fFF"/>
</g>
<defs>
<clipPath id="clip0_219_13">
<rect width="476" height="476" fill="white"/>
</clipPath>
</defs>
</svg>
